<?xml version="1.0" encoding="UTF-8" standalone="no"?>
<svg
   xmlns:dc="http://purl.org/dc/elements/1.1/"
   xmlns:cc="http://creativecommons.org/ns#"
   xmlns:rdf="http://www.w3.org/1999/02/22-rdf-syntax-ns#"
   xmlns:svg="http://www.w3.org/2000/svg"
   xmlns="http://www.w3.org/2000/svg"
   xmlns:sodipodi="http://sodipodi.sourceforge.net/DTD/sodipodi-0.dtd"
   xmlns:inkscape="http://www.inkscape.org/namespaces/inkscape"
   version="1.0"
   width="2702.9299"
   height="2702.9299"
   viewBox="0 0 2162.344 2162.3439"
   preserveAspectRatio="xMidYMid meet"
   id="svg2"
   inkscape:version="0.48.4 r9939"
   sodipodi:docname="logo.svg"
   inkscape:export-filename="/home/lars/dev/android/andCA/logo.png"
   inkscape:export-xdpi="3.2"
   inkscape:export-ydpi="3.2">
  <defs
     id="defs38" />
  <sodipodi:namedview
     pagecolor="#ffffff"
     bordercolor="#666666"
     borderopacity="1"
     objecttolerance="10"
     gridtolerance="10"
     guidetolerance="10"
     inkscape:pageopacity="0"
     inkscape:pageshadow="2"
     inkscape:window-width="1600"
     inkscape:window-height="854"
     id="namedview36"
     showgrid="false"
     inkscape:zoom="0.19866106"
     inkscape:cx="1274.9285"
     inkscape:cy="1175.8253"
     inkscape:window-x="0"
     inkscape:window-y="0"
     inkscape:window-maximized="1"
     inkscape:current-layer="svg2"
     fit-margin-top="50"
     fit-margin-left="0"
     fit-margin-right="0"
     fit-margin-bottom="50" />
  <metadata
     id="metadata4">
Created by potrace 1.10, written by Peter Selinger 2001-2011
<rdf:RDF>
  <cc:Work
     rdf:about="">
    <dc:format>image/svg+xml</dc:format>
    <dc:type
       rdf:resource="http://purl.org/dc/dcmitype/StillImage" />
    <dc:title></dc:title>
  </cc:Work>
</rdf:RDF>
</metadata>
  <path
     style="fill:#861b1d;fill-opacity:1;stroke:none"
     inkscape:connector-curvature="0"
     id="path8"
     d="m 481.70189,1126.7748 c -264.8,394.2 -481.4999945,717.3 -481.6999945,718 -0.3,1.1 17.4999995,1.3 100.2999945,1.1 l 100.7,-0.3 311.3,-446.8 c 171.3,-245.8 311.5,-446.99997 311.7,-447.29997 0.2,-0.2 66.7,84.69997 147.8,188.69997 l 147.40001,188.9 2.2,-2.2 c 1.2,-1.3 41.9,-52.9 90.4,-114.8 48.6,-61.9 89.3,-113.7 90.6,-115.2 l 2.3,-2.8 155.1,184 155.1,184 9.2,-0.1 c 22,-0.1 243.7,-5.5 244.1,-5.9 0.4,-0.6 -902.90001,-1045.29998 -904.20001,-1045.79998 -0.4,-0.1 -217.5,322.30001 -482.3,716.49998 z M 1199.2019,739.87483 c 126.8,140.4 230.6,255.4 230.6,255.7 0,0.2 -6.9,-4.2 -15.2,-9.9 -70.3,-47.4 -134.9,-71.6 -171.8,-64.2 -16.1,3.2 -26.1,9.5 -43,27.3 -22.3,23.3 -38.4,50.8 -50.7,86.79997 -1.9,5.5 -6.8,21.7 -10.9,36 -10.9,38.5 -16.1,47.5 -27.1,47.5 -12.1,0 -19.8,-9.7 -24.4,-30.7 -3,-13.9 -3.7,-60.1 -1.5,-101.79997 2.5,-48 3,-71.6 1.7,-86.7 -2.5,-29.6 -8.9,-41.8 -21.9,-41.8 -11.8,0 -19.3,9.2 -32.7,40 -9.8,22.5 -15.1,32.4 -20.9,38.7 -8.4,9.3 -17.50001,11.7 -26.60001,7 -12.6,-6.3 -14.3,-21.7 -7.1,-63.7 5.1,-30.1 6.4,-42.7 5.2,-51.4 -1.7,-12.1 -6.1,-18.1 -16.8,-22.8 -10,-4.4 -21.8,-0.2 -40.8,14.7 -12.9,10.2 -16.3,12 -20,11.1 -4.5,-1.1 -5.7,-5.8 -6.6,-26.6 -0.9,-20.6 -2.4,-29.1 -6.5,-37.5 -9.5,-19.4 -29,-17.3 -60.9,6.6 -20.3,15.1 -39,32.9 -83,79.4 -34.8,36.7 -47.7,49.4 -55.1,54.6 -4.3,2.9 -9.1,4.3 -9.5,2.6 -0.1,-0.5 62.8,-97.8 139.7,-216.20003 l 139.9,-215.39998 2.6,2.7 c 1.5,1.5 106.40001,117.6 233.30001,258.00001 z" />
  <path
     style="fill:#861b1d;fill-opacity:1;stroke:none"
     inkscape:connector-curvature="0"
     id="path16"
     d="m 1011.1019,1571.0748 c -6.4,3.8 -6.8,5.4 -7.1,26.7 l -0.4,19.3 -3.1,0 c -8.90001,0 -17.00001,5.6 -18.30001,12.6 -1,5.4 1.1,10.9 5.3,14.1 2.8,2.1 4.9,2.8 9.9,3.1 l 6.40001,0.4 0.2,93.3 c 0.3,92.5 0.3,93.4 2.4,96.1 3.3,4.5 7,6.7 12.1,7.1 5.9,0.5 11.7,-2.5 14.7,-7.7 2.1,-3.5 2.1,-4.7 2.4,-96.3 l 0.2,-92.7 5.1,0 c 9.8,0 15.9,-5.3 15.9,-13.8 0,-9.2 -5.5,-14.9 -15.4,-15.9 l -5.4,-0.6 -0.4,-18.6 c -0.3,-20.9 -1.1,-23.7 -7.8,-27.2 -4.6,-2.5 -12.5,-2.5 -16.7,0.1 z" />
  <path
     style="fill:#861b1d;fill-opacity:1;stroke:none"
     inkscape:connector-curvature="0"
     id="path18"
     d="m 1121.9019,1570.7748 c -6.5,3.2 -7.1,5.5 -7.1,26.9 l 0,19.1 -6.1,0.7 c -10.3,1 -16,6.3 -16.1,14.9 -0.2,9.1 6.2,14.7 16.7,14.7 l 5.5,0 0,93.2 c 0,91.9 0,93.4 2,96.6 2.7,4.4 9.8,7.6 15.3,6.9 4.7,-0.6 8.3,-3.1 11.5,-7.7 l 2.2,-3.3 0,-92.8 0,-92.9 5.8,0 c 9.1,0 14.5,-4.3 15.7,-12.5 0.5,-3.1 0.1,-5.1 -1.7,-8.5 -2.8,-5.4 -6.9,-8 -14.3,-8.7 l -5.5,-0.6 0,-18.1 c 0,-20.4 -0.7,-23.2 -6.9,-27.3 -4.1,-2.8 -12,-3.1 -17,-0.6 z" />
  <path
     style="fill:#fa6e23;fill-opacity:1;stroke:none"
     inkscape:connector-curvature="0"
     id="path20"
     d="m 1508.1019,1571.0748 c -1.8,1 -4,3.1 -5,4.7 -1.7,2.6 -1.8,9.2 -2.1,128.3 -0.2,86.3 0,126.6 0.8,129.2 3.4,11.9 21.3,14.2 27.8,3.6 l 2.2,-3.5 0,-82.8 c 0,-59.9 0.3,-83.8 1.2,-86.6 0.6,-2.2 2.7,-5.7 4.6,-7.9 9.4,-11 25.2,-11.7 35.7,-1.6 7.8,7.4 7.5,3.9 7.5,97 0,80.6 0,82.2 2,85.4 5.7,9.4 21.5,8.9 26.5,-0.8 2.3,-4.4 2.2,-169.7 0,-178.5 -4.8,-18.3 -19.8,-33.2 -38.5,-38 -8.9,-2.3 -26.3,-1.7 -33.7,1.3 l -5.3,2 0,-21.7 c 0,-21 -0.1,-21.9 -2.3,-25.2 -4.4,-6.6 -14.7,-9 -21.4,-4.9 z" />
  <path
     style="fill:#861b1d;fill-opacity:1;stroke:none"
     inkscape:connector-curvature="0"
     id="path22"
     d="m 620.60189,1618.0748 c -3.7,1.1 -6.8,3.4 -8.9,6.7 -1.8,2.7 -1.9,7.3 -1.9,105.8 0,100.5 0.1,103.1 2,106.2 2.8,4.6 9.2,7.6 14.8,7 4.8,-0.5 8.4,-2.7 11.6,-7.1 2.1,-2.7 2.1,-3.8 2.6,-87.9 0.6,-94.4 0,-87.6 7.2,-94.3 7,-6.7 14.4,-8.5 23.4,-5.9 7.1,2 14.6,9.1 16.3,15.2 0.7,2.5 1.1,31.2 1.1,86.4 l 0,82.6 2.3,3.3 c 5,7.5 12.1,9.7 20,6.2 8.8,-3.9 8.1,2.8 8.7,-94.3 l 0.5,-85.6 2.8,-4.1 c 9,-12.9 26.5,-14.5 37.6,-3.4 2.8,2.9 5.1,6.3 5.9,8.8 0.9,3.1 1.2,24.5 1.2,86.5 0,77.8 0.1,82.6 1.8,85.9 2.1,3.9 8.9,8 13.4,8 5,0 10.6,-3 13,-6.9 l 2.3,-3.6 0.3,-82 c 0.2,-53 -0.1,-84.5 -0.8,-89 -2.4,-16.3 -13.9,-32.1 -28.3,-38.9 -9.5,-4.5 -16.4,-6 -26.8,-5.9 -12.9,0.1 -23.9,3.9 -34.1,11.6 l -4.4,3.4 -3,-2.4 c -15.4,-12.7 -39.1,-16.3 -57.6,-8.8 -4.6,1.8 -6,2 -6.8,1 -2.8,-3.4 -11.8,-5.9 -16.2,-4.5 z" />
  <path
     style="fill:#861b1d;fill-opacity:1;stroke:none"
     inkscape:connector-curvature="0"
     id="path24"
     d="m 887.30189,1618.0748 c -17.6,2.4 -33.1,13.4 -41,29 -5.7,11.3 -5.7,11.2 -5.3,87.5 l 0.3,70 2.3,5.4 c 11.5,27.2 42.6,40.5 71.2,30.5 l 7.9,-2.7 3.1,2.6 c 5.3,4.5 12.2,4.7 18.9,0.6 6.3,-3.8 6.1,-0.4 6.1,-92.3 0,-56.7 -0.4,-85.2 -1.1,-88.8 -3.9,-19.1 -19.8,-35.6 -38.5,-40.2 -8.1,-2 -16.8,-2.6 -23.9,-1.6 z m 19.3,31.9 c 2,1.1 5.1,3.4 6.9,5.3 6.5,6.8 6.3,4.1 6.3,75.8 0,56.6 -0.2,65.6 -1.6,68.8 -6.1,14.7 -26.7,18.8 -39.2,7.8 -7.5,-6.5 -7.2,-3.3 -7.2,-76.6 0,-61.4 0.2,-65.7 1.9,-69.5 2.9,-6.4 8.6,-11.2 16.1,-13.6 3.7,-1.2 12.6,-0.1 16.8,2 z" />
  <path
     style="fill:#861b1d;fill-opacity:1;stroke:none"
     inkscape:connector-curvature="0"
     id="path26"
     d="m 1249.7019,1618.0748 c -22.1,3.4 -39.3,17.8 -45.3,37.9 -1.4,4.8 -1.6,13.9 -1.6,74.7 0,66.2 0.1,69.5 2,75.6 5.4,17.4 20.2,30.9 39.6,35.8 14.6,3.8 24.9,1.6 28.6,-6 5.3,-10.5 -2.5,-22 -14.8,-22 -9,0 -18.6,-5.7 -22.3,-13.3 -2,-4 -2.1,-6.1 -2.1,-30 l 0,-25.7 16.3,0 c 17.7,0 24.1,-1.1 33.1,-5.6 12.3,-6.2 22.1,-17.1 26.8,-29.9 1.8,-5.2 2.2,-8.7 2.6,-24.9 0.4,-21.4 -0.4,-27.9 -4.9,-37.2 -6.2,-12.5 -16.9,-21.6 -31.4,-26.5 -9.1,-3.1 -18.5,-4.1 -26.6,-2.9 z m 18.4,31.6 c 5.6,2.9 10.7,8.5 12.2,13.8 1.8,6 2,28.6 0.4,35.1 -1.4,5.7 -6.7,11.7 -12.6,14.6 -4.2,2 -6.7,2.4 -19.5,2.7 l -14.8,0.4 0,-26.1 c 0,-29.5 0.3,-30.9 7.7,-37 7.2,-6 18.7,-7.5 26.6,-3.5 z" />
  <path
     style="fill:#861b1d;fill-opacity:1;stroke:none"
     inkscape:connector-curvature="0"
     id="path28"
     d="m 1363.8019,1618.2748 c -1.9,0.5 -4.6,1.9 -5.8,3.1 -5.5,5 -5.2,-0.4 -5.2,109.9 0,100.8 0,102.3 2,105.6 2.2,3.7 8.8,7.1 13.4,7.2 5,0 11.4,-3.8 13.6,-8.1 1.9,-3.7 2,-6.3 2,-86.9 0,-91.6 -0.3,-86.9 6.3,-93.8 5.1,-5.4 10.2,-7.6 17.7,-7.6 7.5,0 12.6,2.2 17.7,7.6 5.8,6.1 6.3,8.4 6.3,32.5 0,20.7 0.1,22 2.3,25.7 5.9,10.4 21.7,10.1 26.9,-0.4 1.6,-3 1.8,-6.6 1.8,-25.7 0,-24.8 -0.7,-29.6 -5.7,-40.2 -6.4,-13.5 -20.5,-24.6 -35.8,-28.2 -10.9,-2.5 -25.9,-1.2 -36.2,3.2 -3.7,1.6 -4.3,1.6 -5.4,0.3 -3.1,-3.7 -10.4,-5.7 -15.9,-4.2 z" />
  <path
     style="fill:#fa6e23;fill-opacity:1;stroke:none"
     inkscape:connector-curvature="0"
     id="path30"
     d="m 1694.4019,1619.5748 c -19,5.2 -34.6,21.6 -38.5,40.3 -0.7,3.6 -1.1,27.3 -1,72 0,59.7 0.2,67.4 1.7,73.3 5.9,22.4 27.9,38.3 53.2,38.3 25.3,0 47.3,-15.9 53.2,-38.3 1.5,-5.9 1.7,-13.6 1.7,-73.6 0.1,-56.4 -0.2,-68 -1.4,-73.4 -4.4,-18.4 -19.6,-33.7 -38.1,-38.5 -7.5,-1.9 -23.9,-2 -30.8,-0.1 z m 23,29 c 6.2,1.8 11.6,6.3 14.3,11.8 2.1,4.3 2.1,5.4 2.1,70.5 0,53.7 -0.3,66.9 -1.4,69.5 -1.8,4.4 -9.5,11.1 -14.4,12.5 -13.2,4 -27.5,-2.8 -31.1,-14.7 -0.8,-2.7 -1.1,-22.9 -1.1,-68.3 l 0,-64.4 2.6,-5.2 c 5.2,-10.5 17,-15.3 29,-11.7 z" />
  <path
     style="fill:#fa6e23;fill-opacity:1;stroke:none"
     inkscape:connector-curvature="0"
     id="path32"
     d="m 1814.7019,1620.4748 c -7.3,5 -6.9,-0.9 -6.9,109.9 0,64.3 0.4,100.5 1,102.9 2.4,8.5 12.6,12.8 21.3,9 8.8,-3.9 8.1,3.5 8.7,-92.7 0.5,-84.7 0.5,-85 2.7,-89 7.6,-14.1 25.2,-17.6 37.6,-7.4 7.6,6.3 8.1,8.4 8.7,34.9 0.4,20.5 0.7,24 2.3,26.3 5.9,9.1 20.9,8.8 25.9,-0.4 1.6,-3 1.8,-6 1.8,-26.6 0,-13.4 -0.5,-25.4 -1.1,-28.5 -4,-18.7 -21.5,-35.9 -40.6,-39.8 -9.4,-2 -25.5,-0.9 -33.3,2.3 -6.3,2.6 -6.5,2.6 -8.5,0.8 -5.4,-4.9 -13.8,-5.6 -19.6,-1.7 z" />
  <path
     style="fill:#fa6e23;fill-opacity:1;stroke:none"
     inkscape:connector-curvature="0"
     id="path34"
     d="m 1963.4019,1619.9748 c -1.5,1 -3.7,3.2 -4.7,4.7 -1.8,2.8 -1.9,6.7 -1.9,105.9 0,101.5 0,103 2,106.3 2.2,3.5 8.8,7.2 13,7.2 4.2,0 10.8,-3.7 13,-7.2 2,-3.2 2,-4.8 2,-85.4 0,-92.8 -0.3,-89.2 7.4,-96.8 4.5,-4.5 11.5,-7.6 17.2,-7.6 8.5,0 19.2,7 22.7,14.8 0.9,2 1.3,24.5 1.7,87.9 l 0.5,85.2 3.5,3.6 c 6.3,6.5 15.4,6.9 21.9,0.9 l 3.6,-3.2 0.3,-86.4 c 0.2,-59 -0.1,-87.9 -0.8,-91.5 -3.7,-17.5 -20,-33.9 -38.5,-38.8 -11.3,-2.9 -30,-1.4 -38.8,3.2 -2.7,1.3 -3.1,1.3 -5.1,-0.5 -3.5,-3.2 -6.2,-4.2 -11.3,-4.2 -3,0 -5.9,0.7 -7.7,1.9 z" />
  <g
     id="g3148"
     transform="matrix(2.184415,0,0,2.184415,-1506.215,17.737949)"
     style="stroke:#000000;stroke-width:2.03999996;stroke-miterlimit:4;stroke-opacity:1;stroke-dasharray:none">
    <path
       sodipodi:nodetypes="ccsssccc"
       inkscape:connector-curvature="0"
       style="fill:#94c147;stroke:#000000;stroke-width:2.03999996;stroke-miterlimit:4;stroke-opacity:1;stroke-dasharray:none"
       id="path23"
       d="m 1540.688,261.04669 c -7.9432,-8.06187 -21.0262,-8.05877 -29.214,0.009 l -57.9438,57.09077 c -8.1901,8.06952 -8.3844,21.14822 -0.4412,29.21009 7.9431,8.06188 21.016,8.0553 29.2066,-0.0148 l 57.9439,-57.09077 c 8.1884,-8.0667 8.3922,-21.14137 0.4485,-29.20382 z" />
    <path
       inkscape:connector-curvature="0"
       style="fill:#94c147;stroke:#000000;stroke-width:2.03999996;stroke-miterlimit:4;stroke-opacity:1;stroke-dasharray:none"
       id="path25"
       d="m 1389.7726,108.78128 -105.8627,104.30408 c -6.2884,6.19588 -6.3618,16.31742 -0.1659,22.60588 l 12.8101,13.00146 -32.2356,31.76096 c -8.1889,8.06839 -8.3855,21.14368 -0.4389,29.20898 7.9437,8.06244 21.0233,8.0627 29.2123,-0.006 l 32.2355,-31.76096 22.3905,22.72507 -32.2355,31.76096 c -8.189,8.06839 -8.3895,21.13969 -0.4463,29.20157 7.9432,8.06187 21.0228,8.06213 29.2117,-0.006 l 32.2356,-31.76096 12.8173,13.00888 c 6.1886,6.28105 16.3153,6.35388 22.5992,0.1625 l 105.8626,-104.30408 -127.9899,-129.90239 0,0 z" />
    <path
       inkscape:connector-curvature="0"
       style="fill:#94c147;stroke:#000000;stroke-width:2.03999996;stroke-miterlimit:4;stroke-opacity:1;stroke-dasharray:none"
       id="path27"
       d="m 1538.6759,150.18832 29.2449,-5.16577 c 1.7356,-0.31184 2.9201,-1.82253 2.6466,-3.38815 -0.2792,-1.56341 -1.9042,-2.58014 -3.6466,-2.27514 l -30.3755,5.36104 c -4.8495,-11.39864 -12.039,-22.29984 -21.5139,-31.9163 -9.4721,-9.61362 -20.2705,-16.969182 -31.596,-21.987213 l 5.811,-30.292622 c 0.3308,-1.737643 -0.6617,-3.378748 -2.2208,-3.679949 -1.5591,-0.301201 -3.0923,0.861259 -3.4276,2.595474 l -5.599,29.165055 c -27.662,-10.32779 -57.715,-7.094791 -79.077,10.594659 L 1526.9136,229.1035 c 18.0038,-21.09781 21.6815,-51.09908 11.7623,-78.91518 z m -84.7882,-31.14268 c -3.9107,-3.96911 -3.8667,-10.36007 0.1053,-14.27356 3.9651,-3.90674 10.3566,-3.86217 14.2701,0.10979 3.9135,3.97196 3.8554,10.35546 -0.1097,14.2622 -3.9691,3.91068 -10.3562,3.86954 -14.2657,-0.0984 z m 54.8808,55.70086 c -3.9135,-3.97196 -3.8622,-10.35551 0.1098,-14.26899 3.9651,-3.90675 10.3527,-3.86617 14.2656,0.10522 3.9141,3.97253 3.8593,10.35945 -0.1058,14.2662 -3.9691,3.91067 -10.3561,3.86953 -14.2696,-0.10243 z" />
    <path
       sodipodi:nodetypes="cssscccc"
       inkscape:connector-curvature="0"
       style="fill:#94c147;stroke:#000000;stroke-width:2.03999996;stroke-miterlimit:4;stroke-opacity:1;stroke-dasharray:none"
       id="path23-2"
       d="m 1391.7671,18.175079 c -10.1495,-5.021984 -22.5028,-0.734082 -27.6003,9.568148 l -36.0746,72.907243 c -5.099,10.30511 -1.0126,22.72287 9.1376,27.74525 10.1481,5.02126 22.5042,0.74018 27.6037,-9.5653 l 36.0747,-72.907106 c 5.0918,-10.305068 1.0036,-22.728176 -9.1409,-27.747699 z" />
  </g>
  <text
     xml:space="preserve"
     style="font-size:29.86208153px;font-style:normal;font-weight:normal;line-height:79.00000215%;letter-spacing:0px;word-spacing:0px;fill:#94c147;fill-opacity:1;stroke:#000000;stroke-width:2.82434154;stroke-miterlimit:4;stroke-opacity:1;stroke-dasharray:none;font-family:Sans;-inkscape-font-specification:Sans"
     x="1743.209"
     y="-512.81415"
     id="text3154"
     sodipodi:linespacing="79.000002%"
     transform="matrix(0.66010014,0.75383425,-0.7316279,0.67940273,0,0)"><tspan
       sodipodi:role="line"
       x="1743.209"
       y="-512.81415"
       style="font-size:223.96560669px;font-weight:normal;line-height:79.00000215%;fill:#94c147;fill-opacity:1;stroke:#000000;stroke-width:2.82434154;stroke-miterlimit:4;stroke-opacity:1;stroke-dasharray:none;-inkscape-font-specification:Sans"
       id="tspan3018"><tspan
         style="font-size:443.26742554px;line-height:79.00000215%;stroke-width:2.82434154"
         id="tspan3020">CA</tspan></tspan></text>
  <text
     xml:space="preserve"
     style="font-size:40px;font-style:normal;font-weight:normal;line-height:125%;letter-spacing:0px;word-spacing:0px;fill:#000000;fill-opacity:1;stroke:none;font-family:Sans"
     x="3966.5549"
     y="2471.3799"
     id="text3024"
     sodipodi:linespacing="125%"
     transform="matrix(0.80000002,0,0,0.80000002,0,-5e-5)"><tspan
       sodipodi:role="line"
       id="tspan3026"
       x="3966.5549"
       y="2471.3799">s</tspan></text>
</svg>
